<svg width="16" height="16" viewBox="0 0 16 16" fill="none" xmlns="http://www.w3.org/2000/svg">
<path d="M6.5 2C7.32843 2 7.96939 2.7118 8.36719 3.43848C8.87661 4.36889 9.86445 5 11 5H12.5C13.3284 5 14 5.67157 14 6.5V7.35547C13.267 6.52463 12.195 6 11 6C8.79086 6 7 7.79086 7 10C7 11.195 7.52463 12.267 8.35547 13H4C2.89543 13 2 12.1046 2 11V4C2 2.89543 2.89543 2 4 2H6.5Z" fill="#907ECE"/>
<path fill-rule="evenodd" clip-rule="evenodd" d="M10.259 7.1736C10.1689 7.08172 10.1238 7.03578 10.0894 7.01958C10.0547 7.0033 10.0303 6.99846 9.99246 7.00041C9.95483 7.00235 9.9174 7.01903 9.84253 7.05239C9.60503 7.15823 9.38303 7.29566 9.18116 7.45974C9.11662 7.51221 9.08435 7.53844 9.06401 7.57213C9.04355 7.60603 9.03531 7.63086 9.03124 7.67093C9.02719 7.71074 9.04199 7.77521 9.0716 7.90415C9.13482 8.17954 9.10231 8.4803 8.95865 8.74521C8.81498 9.01016 8.58655 9.19053 8.33087 9.26991C8.21099 9.30713 8.15105 9.32574 8.12063 9.34945C8.09005 9.37329 8.07393 9.3934 8.05661 9.42929C8.03939 9.46499 8.03427 9.50791 8.02403 9.59376C8.00818 9.72679 8 9.86238 8 10C8 10.1376 8.00818 10.2732 8.02404 10.4062C8.03427 10.4921 8.03939 10.535 8.05661 10.5707C8.07393 10.6066 8.09005 10.6267 8.12063 10.6506C8.15105 10.6743 8.21099 10.6929 8.33087 10.7301C8.58655 10.8095 8.81498 10.9898 8.95865 11.2548C9.10231 11.5197 9.13482 11.8205 9.0716 12.0959C9.04199 12.2248 9.02719 12.2892 9.03124 12.3291C9.03531 12.3691 9.04355 12.394 9.06401 12.4279C9.08435 12.4616 9.11662 12.4878 9.18116 12.5402C9.38303 12.7043 9.60503 12.8418 9.84253 12.9476C9.9174 12.981 9.95483 12.9977 9.99246 12.9996C10.0303 13.0016 10.0547 12.9967 10.0894 12.9804C10.1238 12.9642 10.1689 12.9183 10.259 12.8264C10.4514 12.6302 10.7125 12.5096 11 12.5096C11.2875 12.5096 11.5486 12.6302 11.741 12.8264C11.8311 12.9183 11.8762 12.9642 11.9106 12.9804C11.9453 12.9967 11.9697 13.0016 12.0075 12.9996C12.0452 12.9977 12.0826 12.981 12.1575 12.9476C12.395 12.8418 12.617 12.7043 12.8188 12.5402C12.8834 12.4878 12.9157 12.4616 12.936 12.4279C12.9565 12.394 12.9647 12.3691 12.9688 12.3291C12.9728 12.2892 12.958 12.2248 12.9284 12.0959C12.8652 11.8205 12.8977 11.5197 13.0413 11.2548C13.185 10.9898 13.4135 10.8095 13.6691 10.7301C13.789 10.6929 13.849 10.6743 13.8794 10.6506C13.91 10.6267 13.9261 10.6066 13.9434 10.5707C13.9606 10.535 13.9657 10.4921 13.976 10.4062C13.9918 10.2732 14 10.1376 14 10C14 9.86238 13.9918 9.72679 13.976 9.59376C13.9657 9.50791 13.9606 9.46499 13.9434 9.42929C13.9261 9.3934 13.91 9.37329 13.8794 9.34945C13.849 9.32574 13.789 9.30713 13.6691 9.26991C13.4135 9.19053 13.185 9.01016 13.0413 8.74521C12.8977 8.4803 12.8652 8.17954 12.9284 7.90415C12.958 7.77521 12.9728 7.71074 12.9688 7.67093C12.9647 7.63086 12.9565 7.60603 12.936 7.57213C12.9157 7.53844 12.8834 7.51221 12.8188 7.45974C12.617 7.29566 12.395 7.15823 12.1575 7.05239C12.0826 7.01903 12.0452 7.00235 12.0075 7.00041C11.9697 6.99846 11.9453 7.0033 11.9106 7.01958C11.8762 7.03578 11.8311 7.08172 11.741 7.1736C11.5486 7.36984 11.2875 7.49042 11 7.49042C10.7125 7.49042 10.4514 7.36984 10.259 7.1736ZM11 10.9126C11.4734 10.9126 11.8571 10.504 11.8571 10C11.8571 9.496 11.4734 9.08742 11 9.08742C10.5266 9.08742 10.1429 9.496 10.1429 10C10.1429 10.504 10.5266 10.9126 11 10.9126Z" fill="#907ECE"/>
</svg>
