<svg width="16" height="16" viewBox="0 0 16 16" fill="none" xmlns="http://www.w3.org/2000/svg">
<path d="M6.5 2C7.32843 2 7.96939 2.7118 8.36719 3.43848C8.87661 4.36889 9.86445 5 11 5H12.5C13.3284 5 14 5.67157 14 6.5V7.35547C13.267 6.52463 12.195 6 11 6C8.79086 6 7 7.79086 7 10C7 11.195 7.52463 12.267 8.35547 13H4C2.89543 13 2 12.1046 2 11V4C2 2.89543 2.89543 2 4 2H6.5Z" fill="#E26350"/>
<path d="M13.8868 9.73288L11.2672 7.11308C11.1947 7.04067 11.0965 7 10.994 7C10.8916 7 10.7933 7.04067 10.7208 7.11308L10.6022 7.2317C10.3673 7.46648 10.3672 7.84722 10.602 8.08209L10.6857 8.16581C10.7966 8.27674 10.9668 8.29879 11.1195 8.33454C11.2032 8.35413 11.2797 8.39686 11.3403 8.45785C11.4009 8.51884 11.4432 8.59564 11.4622 8.67948C11.497 8.83229 11.5185 9.00244 11.6293 9.11326L11.8923 9.37634C12.0274 9.51147 12.2397 9.5346 12.4193 9.5998C12.5181 9.63566 12.6016 9.7043 12.6559 9.79427C12.7102 9.88424 12.7321 9.99011 12.7178 10.0942C12.7035 10.1984 12.654 10.2944 12.5775 10.3665C12.501 10.4385 12.402 10.4821 12.2973 10.4901C12.1925 10.498 12.0881 10.4698 12.0016 10.4102C11.915 10.3505 11.8516 10.263 11.8218 10.1623C11.8101 10.1228 11.8038 10.0823 11.803 10.0417C11.8005 9.92678 11.7847 9.8034 11.7034 9.72208C11.5241 9.54274 11.2175 9.66971 11.2175 9.92329V10.5557C11.2175 10.7471 11.3511 10.914 11.4312 11.0878C11.4753 11.1833 11.4853 11.291 11.4595 11.3929C11.4338 11.4949 11.3739 11.5849 11.2898 11.6481C11.2057 11.7112 11.1025 11.7436 10.9974 11.7399C10.8923 11.7362 10.7917 11.6966 10.7123 11.6277C10.6329 11.5587 10.5795 11.4647 10.561 11.3612C10.5425 11.2576 10.5601 11.1509 10.6107 11.0588C10.7018 10.8932 10.8394 10.7314 10.8394 10.5424V9.38932C10.8394 9.27957 10.767 9.18563 10.6893 9.10816C10.6463 9.06534 10.6122 9.01443 10.589 8.95836C10.5658 8.9023 10.5539 8.8422 10.5541 8.78152C10.5543 8.67179 10.5391 8.55416 10.4615 8.47658L10.3164 8.3315C10.0915 8.10669 9.72696 8.10674 9.50213 8.33159L8.11319 9.72069C8.04072 9.79317 8 9.89147 8 9.99397C8 10.0965 8.04072 10.1948 8.11319 10.2672L10.7328 12.8868C10.8053 12.9593 10.9036 13 11.0061 13C11.1086 13 11.2069 12.9593 11.2794 12.8868L13.8868 10.2794C13.9593 10.2069 14 10.1086 14 10.006C14 9.9035 13.9593 9.80516 13.8868 9.73264" fill="#E26350"/>
</svg>
