<svg width="16" height="16" viewBox="0 0 16 16" fill="none" xmlns="http://www.w3.org/2000/svg">
<path d="M12.13 5.24185C12.3936 5.42217 12.6192 5.66217 12.7921 5.94498C12.9651 6.22796 13.0812 6.54867 13.1329 6.88443C13.3254 6.8461 13.5245 6.82681 13.7228 6.82681C14.4693 6.82688 14.8255 7.12007 14.8605 7.15201L15.0001 7.27408L14.9415 7.45279C14.854 7.70817 14.7083 7.93799 14.5333 8.12955C14.2592 8.417 13.769 8.76822 12.9699 8.76822H12.8361C12.5153 9.66241 12.0778 10.6718 11.3488 11.5788C10.9115 12.1191 10.3974 12.5792 9.82631 12.9401C9.1343 13.3721 8.38083 13.6736 7.59779 13.8336C7.03204 13.9486 6.46039 13.9997 5.88881 13.9997C4.61729 13.9997 3.49706 13.7384 2.80873 13.2721C2.15165 12.798 1.65828 12.0961 1.40834 11.279C1.12928 10.4489 0.991024 9.5697 1.00014 8.68521C1.00015 8.62183 1.01201 8.55912 1.03432 8.50064C1.05667 8.4421 1.08975 8.38896 1.131 8.34439C1.17221 8.29988 1.22085 8.26455 1.27455 8.24088C1.32823 8.21721 1.38564 8.20589 1.4435 8.2067H10.6603C11.0131 8.19009 11.3596 8.09867 11.6808 7.93814C11.3892 7.43993 11.3075 6.85848 11.4474 6.23892C11.516 5.91494 11.635 5.60546 11.798 5.32486L11.9318 5.1149L12.13 5.24185ZM2.75014 8.99966C2.33604 8.99966 2.00032 9.33561 2.00014 9.74966C2.00014 10.1639 2.33592 10.4997 2.75014 10.4997C3.16429 10.4996 3.50014 10.1638 3.50014 9.74966C3.49995 9.33565 3.16418 8.99974 2.75014 8.99966ZM3.53236 6.46841C3.54649 6.46844 3.56039 6.4721 3.57338 6.47818C3.58651 6.48435 3.59871 6.49318 3.60854 6.50455C3.61837 6.51591 3.62608 6.52989 3.631 6.54459C3.63581 6.55915 3.63764 6.57502 3.63686 6.59048V7.79068C3.63764 7.80615 3.63581 7.82202 3.631 7.83658C3.62608 7.85127 3.61836 7.86526 3.60854 7.87662C3.59871 7.88798 3.58651 7.89681 3.57338 7.90298C3.56039 7.90907 3.54649 7.91272 3.53236 7.91275H2.29506C2.23109 7.91258 2.18475 7.86125 2.18471 7.79752V6.58365C2.1847 6.56803 2.18787 6.5521 2.1935 6.53775C2.19913 6.52359 2.20669 6.51029 2.21693 6.49966C2.22726 6.48896 2.23972 6.48064 2.25307 6.47525C2.26638 6.46991 2.2809 6.4676 2.29506 6.46841H3.53236ZM5.23549 6.46841C5.24962 6.46842 5.2635 6.47212 5.2765 6.47818C5.28961 6.48434 5.30184 6.49322 5.31166 6.50455C5.32149 6.51591 5.3292 6.52989 5.33412 6.54459C5.33895 6.55917 5.34077 6.575 5.33998 6.59048V7.79068C5.34083 7.80686 5.33842 7.82339 5.33315 7.83853C5.3279 7.85355 5.32006 7.86718 5.30971 7.87857C5.29924 7.89003 5.28643 7.89917 5.2726 7.90494C5.25888 7.91063 5.24428 7.91364 5.22963 7.91275H3.99818C3.93427 7.91246 3.88783 7.8544 3.88783 7.79068V6.59048C3.88783 6.55841 3.89942 6.52728 3.92006 6.50455C3.94073 6.48191 3.96896 6.46855 3.99818 6.46841H5.23549ZM6.96205 6.46841C6.97619 6.46841 6.99006 6.47212 7.00307 6.47818C7.01616 6.48433 7.02841 6.49323 7.03822 6.50455C7.04805 6.51591 7.05576 6.52989 7.06068 6.54459C7.06551 6.55917 7.06733 6.57499 7.06654 6.59048V7.79068C7.06733 7.80617 7.06551 7.822 7.06068 7.83658C7.05576 7.85127 7.04805 7.86525 7.03822 7.87662C7.02841 7.88793 7.01616 7.89683 7.00307 7.90298C6.99006 7.90904 6.97619 7.91275 6.96205 7.91275H5.72572C5.66742 7.91275 5.6203 7.86135 5.62025 7.79752V6.58365C5.62028 6.55319 5.63183 6.52413 5.6515 6.50259C5.67118 6.48113 5.69794 6.46841 5.72572 6.46841H6.96205ZM8.67104 6.46841C8.69933 6.47005 8.72573 6.48403 8.74525 6.5065C8.76479 6.52909 8.77654 6.55937 8.7765 6.59048V7.79068C8.77654 7.82179 8.76479 7.85208 8.74525 7.87466C8.72573 7.89714 8.69933 7.91112 8.67104 7.91275H7.43471C7.3764 7.91275 7.32343 7.86135 7.32338 7.79752V6.58365C7.32337 6.56803 7.32654 6.5521 7.33217 6.53775C7.3378 6.52354 7.34631 6.51032 7.35658 6.49966C7.36689 6.48906 7.37944 6.48058 7.39272 6.47525C7.40603 6.46997 7.42057 6.46755 7.43471 6.46841H8.67104ZM10.3917 6.46841C10.4063 6.46841 10.4213 6.47208 10.4347 6.47818C10.448 6.48427 10.4597 6.49342 10.4699 6.50455C10.4801 6.51581 10.4887 6.5289 10.4943 6.54361C10.4998 6.55833 10.5031 6.57455 10.5031 6.59048V7.79068C10.5031 7.80662 10.4998 7.82283 10.4943 7.83755C10.4887 7.85227 10.4801 7.86536 10.4699 7.87662C10.4597 7.88774 10.448 7.89689 10.4347 7.90298C10.4213 7.90908 10.4063 7.91275 10.3917 7.91275H9.15541C9.09711 7.91275 9.04998 7.86135 9.04994 7.79752V6.58365C9.04997 6.55319 9.06152 6.52413 9.08119 6.50259C9.10088 6.48106 9.12758 6.46841 9.15541 6.46841H10.3917ZM5.22963 4.73795C5.24385 4.7371 5.25825 4.73941 5.27162 4.74478C5.28494 4.75017 5.29744 4.7585 5.30775 4.7692C5.31803 4.77992 5.32657 4.793 5.33217 4.80728C5.33768 4.82145 5.33995 4.8368 5.33998 4.8522V6.06021C5.33843 6.09108 5.32625 6.11995 5.3058 6.14127C5.28522 6.16262 5.25798 6.17447 5.22963 6.17447H3.99818C3.93436 6.17421 3.88796 6.1238 3.88783 6.06021V4.8522C3.88942 4.82142 3.90163 4.79242 3.92201 4.77115C3.94252 4.74987 3.96995 4.73804 3.99818 4.73795H5.22963ZM6.96205 4.73795C6.98983 4.73799 7.01662 4.74965 7.03627 4.77115C7.05587 4.79261 7.06644 4.82187 7.06654 4.8522V6.06021C7.06508 6.0901 7.05365 6.11814 7.03432 6.13931C7.01496 6.1605 6.98937 6.17289 6.96205 6.17447H5.72572C5.66747 6.17447 5.62038 6.12396 5.62025 6.06021V4.8522C5.62036 4.82187 5.63191 4.79261 5.6515 4.77115C5.67116 4.7498 5.69802 4.73795 5.72572 4.73795H6.96205ZM8.67104 4.73795C8.69834 4.73949 8.72393 4.75198 8.7433 4.7731C8.76261 4.79424 8.77501 4.82236 8.7765 4.8522V6.06021C8.77505 6.09012 8.76264 6.11813 8.7433 6.13931C8.72392 6.16049 8.69838 6.17292 8.67104 6.17447H7.43471C7.37646 6.17447 7.32353 6.12397 7.32338 6.06021V4.8522C7.32341 4.83674 7.32661 4.8215 7.33217 4.80728C7.33781 4.7929 7.34621 4.77996 7.35658 4.7692C7.36696 4.75844 7.3793 4.75017 7.39272 4.74478C7.40609 4.73944 7.42049 4.73708 7.43471 4.73795H8.67104ZM8.67104 3.00064C8.69838 3.00219 8.72392 3.01462 8.7433 3.0358C8.76264 3.05698 8.77505 3.08499 8.7765 3.1149V4.32291C8.77644 4.35386 8.7647 4.38344 8.74525 4.40591C8.72572 4.42844 8.69937 4.44236 8.67104 4.444H7.43471C7.37638 4.444 7.32338 4.39264 7.32338 4.32877V3.1149C7.32339 3.09943 7.32663 3.0842 7.33217 3.06998C7.33779 3.05563 7.34624 3.04264 7.35658 3.03189C7.36696 3.02113 7.3793 3.01286 7.39272 3.00748C7.40611 3.00212 7.42047 2.99977 7.43471 3.00064H8.67104Z" fill="#008FE2"/>
</svg>
