<svg width="16" height="16" viewBox="0 0 16 16" fill="none" xmlns="http://www.w3.org/2000/svg">
<g clip-path="url(#clip0_11_2)">
<path d="M5.21485 11.0318C5.21485 11.0318 4.50391 11.3324 5.67188 11.4451C7.04297 11.5578 7.75391 11.5202 9.27735 11.3324C9.27735 11.3324 9.6836 11.5202 10.2422 11.6705C6.83985 12.7601 2.47266 11.5954 5.21485 11.0318ZM4.75782 9.64162C4.75782 9.64162 3.9961 10.0549 5.16407 10.1301C6.63672 10.2428 7.80469 10.2428 9.83594 9.97977C9.83594 9.97977 10.1406 10.1676 10.5977 10.2803C6.4336 11.1821 1.81251 10.3555 4.75782 9.64162Z" fill="#5382A1"/>
<path d="M8.31249 7.23699C9.17578 7.95087 8.10937 8.5896 8.10937 8.5896C8.10937 8.5896 10.2422 7.76301 9.22656 6.74856C8.31249 5.77168 7.60156 5.32081 11.4609 3.66763C11.4609 3.66763 5.41796 4.75723 8.31249 7.23699Z" fill="#E76F00"/>
<path d="M12.832 12.0838C12.832 12.0838 13.3398 12.3844 12.3242 12.6474C10.3438 13.0983 4.04688 13.211 2.32031 12.6474C1.71094 12.4595 2.87891 12.159 3.23438 12.1214L3.84375 12.0462C3.13281 11.7081 -0.67578 12.7601 1.91406 13.0983C8.92188 13.9249 14.6602 12.7225 12.832 12.0838ZM5.51953 8.13873C5.51953 8.13873 2.32031 8.70231 4.40234 8.92775C5.26563 9.00289 6.99219 9.00289 8.61719 8.89017C9.9375 8.81503 11.2578 8.62717 11.2578 8.62717L10.4453 8.96532C7.19531 9.56647 0.94922 9.2659 2.77734 8.62717C4.30078 8.10116 5.51953 8.13873 5.51953 8.13873ZM11.2578 10.5058C14.5078 9.2659 12.9844 8.02601 11.918 8.21387L11.5625 8.28902C11.5625 8.28902 11.6641 8.1763 11.8672 8.10116C13.9492 7.57514 15.5742 9.71676 11.1563 10.5809L11.2578 10.5058Z" fill="#5382A1"/>
<path d="M9.22656 1C9.22656 1 11.0547 2.3526 7.5 4.41908C4.65625 6.10983 6.89062 7.04913 7.5 8.13873C5.875 7.01156 4.65625 6.03468 5.46875 5.13295C6.63672 3.81792 9.98828 3.14162 9.22656 1Z" fill="#E76F00"/>
<path d="M5.82422 13.9624C8.97266 14.1127 13.8477 13.8497 13.9492 12.7601C13.9492 12.7601 13.7461 13.1734 11.3594 13.5116C8.66797 13.8873 5.31641 13.8497 3.33594 13.5867C3.33594 13.5867 3.74219 13.8497 5.82422 13.9624Z" fill="#5382A1"/>
</g>
<defs>
<clipPath id="clip0_11_2">
<rect width="13" height="13" fill="white" transform="translate(1 1)"/>
</clipPath>
</defs>
</svg>
