<svg width="16" height="16" viewBox="0 0 16 16" fill="none" xmlns="http://www.w3.org/2000/svg">
<path fill-rule="evenodd" clip-rule="evenodd" d="M7.42857 7.17241H9.6C10.2401 7.17241 10.5601 7.17241 10.8046 7.05215C11.0197 6.94635 11.1944 6.77754 11.304 6.56992C11.4286 6.33388 11.4286 6.02488 11.4286 5.4069V4.63448C11.4286 3.40218 11.4286 2.78604 11.2608 2.28739C10.9216 1.2796 10.1033 0.489472 9.05949 0.162019C8.54303 1.64427e-08 7.90488 0 6.62857 0C5.7777 0 5.35226 -2.4664e-08 5.00797 0.108013C4.3121 0.326315 3.76654 0.853065 3.54045 1.52493C3.42857 1.85736 3.42857 2.26813 3.42857 3.08966V3.31034H7.42857V4.41379H4.2449C1.9005 4.41379 0 6.24876 0 8.51232V8.82759C0 10.3511 1.27919 11.5862 2.85714 11.5862C2.85714 10.0412 2.85714 9.26874 3.16855 8.67864C3.44248 8.15958 3.87957 7.73757 4.41717 7.47308C5.02834 7.17241 5.82842 7.17241 7.42857 7.17241ZM6.28571 1.93103C6.28571 1.47398 5.90195 1.10345 5.42857 1.10345C4.95519 1.10345 4.57143 1.47398 4.57143 1.93103C4.57143 2.38809 4.95519 2.75862 5.42857 2.75862C5.90195 2.75862 6.28571 2.38809 6.28571 1.93103Z" fill="#4295DB"/>
<path fill-rule="evenodd" clip-rule="evenodd" d="M8.57143 8.82759H6.4C5.75994 8.82759 5.43991 8.82759 5.19544 8.94785C4.9804 9.05365 4.80557 9.22246 4.69599 9.43008C4.57143 9.66612 4.57143 9.97512 4.57143 10.5931V11.3655C4.57143 12.5978 4.57143 13.214 4.73923 13.7127C5.07838 14.7204 5.89673 15.5105 6.94051 15.838C7.45697 16 8.09512 16 9.37143 16C10.2223 16 10.6478 16 10.992 15.892C11.6879 15.6737 12.2335 15.1469 12.4595 14.475C12.5714 14.1427 12.5714 13.7319 12.5714 12.9103V12.6897H8.57143V11.5862H11.7551C14.0995 11.5862 16 9.75124 16 7.48768V7.17241C16 5.64887 14.7208 4.41379 13.1429 4.41379C13.1429 5.95876 13.1429 6.73126 12.8314 7.32136C12.5575 7.84042 12.1205 8.26243 11.5829 8.52692C10.9717 8.82759 10.1716 8.82759 8.57143 8.82759ZM9.71429 14.069C9.71429 14.526 10.098 14.8966 10.5714 14.8966C11.0448 14.8966 11.4286 14.526 11.4286 14.069C11.4286 13.6119 11.0448 13.2414 10.5714 13.2414C10.098 13.2414 9.71429 13.6119 9.71429 14.069Z" fill="#F6A74B"/>
</svg>
